<?xml version="1.0" encoding="utf-8"?>
<!-- Generator: Adobe Illustrator 19.2.0, SVG Export Plug-In . SVG Version: 6.00 Build 0)  -->
<svg version="1.1" id="Layer_1" xmlns="http://www.w3.org/2000/svg" xmlns:xlink="http://www.w3.org/1999/xlink" x="0px" y="0px"
	 viewBox="0 0 120 23" style="enable-background:new 0 0 120 23;" xml:space="preserve">
<style type="text/css">
	.st0{fill:#3DB249;}
</style>
<g>
	<g>
		<g>
			<path d="M30.7,3.4h2.4v14.8h6.8v2.3h-9.1V3.4z"/>
		</g>
		<path d="M90.4,7.5c-3.7,0-6.7,3-6.7,6.7c0,3.7,3,6.7,6.7,6.7c3.7,0,6.7-3,6.7-6.7C97.2,10.4,94.2,7.5,90.4,7.5z M90.4,18.7
			c-2.4,0-4.4-2-4.4-4.5c0-2.5,2-4.5,4.4-4.5c2.4,0,4.4,2,4.4,4.5C94.8,16.6,92.9,18.7,90.4,18.7z"/>
		<path d="M63,7.5c-3.7,0-6.7,3-6.7,6.7c0,3.7,3,6.7,6.7,6.7c3.7,0,6.7-3,6.7-6.7C69.8,10.4,66.8,7.5,63,7.5z M63,18.7
			c-2.4,0-4.4-2-4.4-4.5c0-2.5,2-4.5,4.4-4.5c2.4,0,4.4,2,4.4,4.5C67.4,16.6,65.5,18.7,63,18.7z"/>
		<path d="M47.9,7.5c-3.7,0-6.7,3-6.7,6.7c0,3.7,3,6.7,6.7,6.7c3.7,0,6.7-3,6.7-6.7C54.6,10.4,51.6,7.5,47.9,7.5z M47.9,18.7
			c-2.4,0-4.4-2-4.4-4.5c0-2.5,2-4.5,4.4-4.5c2.4,0,4.4,2,4.4,4.5C52.3,16.6,50.3,18.7,47.9,18.7z"/>
		<path d="M108.6,7.8v7.4c0,1.9-1.4,3.4-3.3,3.4c-1.9,0-3.3-1.5-3.3-3.4V7.8h-2.4v7.4c0,3.1,2.2,5.6,5.7,5.6c3.4,0,5.7-2.5,5.7-5.6
			V7.8H108.6z"/>
		<path d="M119.7,9.9V7.8h-3.3V4.2H114v10.6c0,3.1,2.2,5.6,5.7,5.6v-2.3c-1.9,0-3.3-1.3-3.3-3.3V9.9H119.7z"/>
		<g>
			<rect x="72.5" y="3.4" width="2.4" height="17.1"/>
		</g>
		<polygon points="83.5,7.8 80.7,7.8 74.9,14.1 80.7,20.4 83.5,20.4 77.7,14.1 		"/>
	</g>
	<path class="st0" d="M23.6,3.4C22.7,2.7,18.2,0.1,12,0.1C5.8,0.1,1.3,2.7,0.4,3.4C0.2,4.4,0.3,9.1,3.6,14.9c3.5,6.2,7.5,7.8,8.4,8
		c0,0,0,0,0,0h0c1-0.2,4.9-1.7,8.4-8C23.8,9.1,23.8,4.4,23.6,3.4z M12,20.4C12,20.4,12,20.4,12,20.4C12,20.4,12,20.4,12,20.4
		c-1.4-0.5-2.8-1.9-4-3.3c1.2-1.1,2.6-1.5,4-1.5c0,0,0,0,0,0c0,0,0,0,0,0c1.4,0,2.8,0.4,4,1.5C14.8,18.5,13.4,19.8,12,20.4z
		 M17.6,15c-1.7-1.4-3.6-2-5.6-2c0,0,0,0,0,0c0,0,0,0,0,0c-1.9,0-3.9,0.6-5.6,2c-0.4-0.6-1.4-2.3-1.9-3.5C6.8,9.9,9.3,9.1,12,9.1
		c0,0,0,0,0,0c0,0,0,0,0,0c2.7,0,5.2,0.7,7.4,2.4C19,12.7,18,14.3,17.6,15z M20.4,9.1c-2.8-1.8-5.5-2.6-8.4-2.6c0,0,0,0,0,0
		c0,0,0,0,0,0c-2.9,0-5.6,0.8-8.4,2.6C3.3,8,2.9,6.4,2.8,5C5.6,3.5,8.9,2.8,12,2.8c0,0,0,0,0,0c0,0,0,0,0,0c3.1,0,6.4,0.7,9.2,2.3
		C21.1,6.4,20.7,8,20.4,9.1z"/>
</g>
</svg>
