<svg id="Layer_1" data-name="Layer 1" xmlns="http://www.w3.org/2000/svg" viewBox="0 0 110.19 21.06"><defs><style>.cls-1{fill:#fff;}.cls-2{fill:#3db44b;}</style></defs><title>LKLogo_whitegreen</title><polygon class="cls-1" points="28.06 3.02 30.24 3.02 30.24 16.68 36.49 16.68 36.49 18.77 28.06 18.77 28.06 3.02 28.06 3.02"/><path class="cls-1" d="M88.19,18.12a4.2,4.2,0,1,1,4.08-4.2,4.14,4.14,0,0,1-4.08,4.2h0Zm0-10.34a6.14,6.14,0,1,0,6.22,6.14,6.18,6.18,0,0,0-6.22-6.14h0Z" transform="translate(-4.99 -0.97)"/><path class="cls-1" d="M62.89,18.12A4.2,4.2,0,1,1,67,13.92a4.14,4.14,0,0,1-4.08,4.2h0Zm0-10.34a6.14,6.14,0,1,0,6.22,6.14,6.18,6.18,0,0,0-6.22-6.14h0Z" transform="translate(-4.99 -0.97)"/><path class="cls-1" d="M48.89,18.12A4.2,4.2,0,1,1,53,13.92a4.14,4.14,0,0,1-4.08,4.2h0Zm0-10.34a6.14,6.14,0,1,0,6.22,6.14,6.18,6.18,0,0,0-6.22-6.14h0Z" transform="translate(-4.99 -0.97)"/><path class="cls-1" d="M105,8.06v6.82a3,3,0,1,1-6.06,0V8.06H96.7v6.82A5,5,0,0,0,102,20.06a5.11,5.11,0,0,0,5.26-5.19V8.06H105Z" transform="translate(-4.99 -0.97)"/><path class="cls-1" d="M115.19,10v-2h-3V4.75h-2.23v9.83a5,5,0,0,0,5.26,5.19V17.61a2.92,2.92,0,0,1-3-3V10h3Z" transform="translate(-4.99 -0.97)"/><polygon class="cls-1" points="68.84 18.77 68.84 3.02 66.67 3.02 66.67 18.77 68.84 18.77 68.84 18.77"/><polygon class="cls-1" points="76.77 7.08 74.17 7.08 68.84 12.92 74.17 18.76 76.77 18.76 71.44 12.92 76.77 7.08 76.77 7.08"/><path class="cls-2" d="M23.53,9.27a13.86,13.86,0,0,0-7.74-2.38h0A13.86,13.86,0,0,0,8,9.27a15.75,15.75,0,0,1-.73-3.74,17.93,17.93,0,0,1,8.48-2.1h0a17.93,17.93,0,0,1,8.48,2.1,15.82,15.82,0,0,1-.74,3.74h0Zm-2.61,5.44a7.92,7.92,0,0,0-5.13-1.83h0a7.92,7.92,0,0,0-5.13,1.83,25,25,0,0,1-1.74-3.19,11.26,11.26,0,0,1,6.88-2.21h0a11.26,11.26,0,0,1,6.87,2.22,24.8,24.8,0,0,1-1.74,3.18h0Zm-5.14,5h0a10.73,10.73,0,0,1-3.7-3,5.37,5.37,0,0,1,3.69-1.35h0a5.34,5.34,0,0,1,3.68,1.35,10.71,10.71,0,0,1-3.69,3h0ZM26.52,4A20.35,20.35,0,0,0,15.78,1,20.35,20.35,0,0,0,5,4c-0.12,1-.1,5.26,3,10.67,3.27,5.76,6.89,7.16,7.78,7.37h0c0.88-.21,4.51-1.61,7.78-7.37C26.62,9.26,26.65,5,26.52,4h0Z" transform="translate(-4.99 -0.97)"/></svg>